<svg width="31" height="30" viewBox="0 0 31 30" fill="none" xmlns="http://www.w3.org/2000/svg">
<g clip-path="url(#clip0_114_2)">
<path d="M15.5 0C16.9229 0 18.2952 0.175781 19.6172 0.527344C20.9391 0.878906 22.1702 1.38672 23.3105 2.05078C24.4508 2.71484 25.4953 3.49609 26.4438 4.39453C27.3924 5.29297 28.2048 6.30371 28.8809 7.42676C29.557 8.5498 30.0767 9.74609 30.4399 11.0156C30.8032 12.2852 30.9899 13.6133 31 15C31 16.377 30.8184 17.7051 30.4551 18.9844C30.0918 20.2637 29.5671 21.4551 28.8809 22.5586C28.1947 23.6621 27.3874 24.6729 26.459 25.5908C25.5306 26.5088 24.4862 27.2949 23.3257 27.9492C22.1652 28.6035 20.929 29.1064 19.6172 29.458C18.3053 29.8096 16.9329 29.9902 15.5 30C14.0771 30 12.7048 29.8242 11.3828 29.4727C10.0609 29.1211 8.82975 28.6133 7.68945 27.9492C6.54915 27.2852 5.50472 26.5039 4.55615 25.6055C3.60758 24.707 2.79525 23.6963 2.11914 22.5732C1.44303 21.4502 0.92334 20.2539 0.560059 18.9844C0.196777 17.7148 0.0100911 16.3867 0 15C0 13.623 0.181641 12.2949 0.544922 11.0156C0.908203 9.73633 1.43294 8.54492 2.11914 7.44141C2.80534 6.33789 3.61263 5.32715 4.54102 4.40918C5.4694 3.49121 6.51383 2.70508 7.67432 2.05078C8.8348 1.39648 10.071 0.893555 11.3828 0.541992C12.6947 0.19043 14.0671 0.00976563 15.5 0ZM17.4375 22.5V18.75H13.5625V22.5H17.4375ZM17.4375 16.875V7.5H13.5625V16.875H17.4375Z" fill="#FF0000"/>
</g>
<defs>
<clipPath id="clip0_114_2">
<rect width="31" height="30" fill="white"/>
</clipPath>
</defs>
</svg>
