<svg width="8" height="6" viewBox="0 0 6 4" fill="none" xmlns="http://www.w3.org/2000/svg">
<path d="M4.80987 0.904308L0.376336 0.823537C0.331447 0.822837 0.287259 0.832412 0.248529 0.851232C0.209798 0.870051 0.177992 0.897401 0.156535 0.93034C0.135077 0.963278 0.124779 1.00056 0.126751 1.03816C0.128723 1.07577 0.142889 1.11228 0.167724 1.14376L2.3356 3.86797C2.42544 3.98092 2.64662 3.98495 2.74077 3.87536L5.00643 1.23191C5.03265 1.20143 5.04836 1.16544 5.05185 1.12787C5.05533 1.0903 5.04646 1.05259 5.0262 1.01882C5.00594 0.985048 4.97506 0.956519 4.93692 0.936331C4.89878 0.916143 4.85484 0.905068 4.80987 0.904308Z" fill="#CCCCCC"/>
</svg>
