<svg width="40" height="38" viewBox="0 0 96 75" fill="none" xmlns="http://www.w3.org/2000/svg">
<path d="M95.7938 16.9087L84.7612 51.8672C83.9363 54.3568 81.771 56.0166 79.1933 56.0166H36.6096C34.1349 56.0166 31.7635 54.4606 30.9386 52.1784L14.6475 8.29876H5.26459C2.9962 8.29876 0.109166 6.95021 0.109166 4.66805C0.109166 2.38589 -0.612625 0 1.65576 0H17.5345C19.2873 0 20.834 1.14108 21.4526 2.80083L38.2593 47.7178H77.4405L86.2047 19.7095L86.5 18.75C87 17.2697 87.3419 15.7642 87.5 15.2961C88 13.8158 88 11.8421 90.329 11.4108H91.8757C93.2161 11.4108 94.4534 12.1369 95.1751 13.1743C96 14.2116 96.2062 15.6639 95.7938 16.9087ZM38.6717 61.5145C36.9189 61.5145 35.166 62.2407 33.9287 63.4855C32.6914 64.7303 31.9697 66.4938 31.9697 68.2573C31.9697 70.0207 32.6914 71.7842 33.9287 73.0291C35.166 74.2739 36.9189 75 38.6717 75C40.4246 75 42.1774 74.2739 43.4147 73.0291C44.652 71.7842 45.3738 70.0207 45.3738 68.2573C45.3738 66.4938 44.652 64.7303 43.4147 63.4855C42.1774 62.2407 40.4246 61.5145 38.6717 61.5145ZM75.6876 61.5145C73.9348 61.5145 72.1819 62.2407 70.9446 63.4855C69.7073 64.7303 68.9856 66.4938 68.9856 68.2573C68.9856 70.0207 69.7073 71.7842 70.9446 73.0291C72.1819 74.2739 73.9348 75 75.6876 75C77.4405 75 79.1933 74.2739 80.4306 73.0291C81.6679 71.7842 82.3897 70.0207 82.3897 68.2573C82.3897 66.4938 81.6679 64.7303 80.4306 63.4855C79.1933 62.2407 77.4405 61.5145 75.6876 61.5145Z" fill="white"/>
</svg>
