<svg width="21" height="21" viewBox="0 0 21 21" fill="none" xmlns="http://www.w3.org/2000/svg">
<path d="M13.3288 15.1492L13.3298 15.1501L17.9014 19.7225C17.9015 19.7225 17.9015 19.7225 17.9015 19.7225C18.1429 19.9641 18.4703 20.0999 18.8119 20.1C19.1534 20.1001 19.481 19.9646 19.7225 19.7231C19.9641 19.4817 20.0999 19.1542 20.1 18.8126C20.1001 18.471 19.9646 18.1434 19.7232 17.9018L19.7232 17.9018L15.1519 13.3299C15.1518 13.3298 15.1518 13.3298 15.1517 13.3297C15.1288 13.3066 15.1053 13.2847 15.0811 13.2639C16.2063 11.6881 16.7075 9.74958 16.4854 7.82366C16.2597 5.86597 15.3032 4.0657 13.8073 2.78304C12.3114 1.50039 10.3864 0.829926 8.41744 0.905803C6.44847 0.981681 4.5808 1.7983 3.188 3.19228C1.79521 4.58626 0.980053 6.4548 0.905595 8.42407C0.831137 10.3933 1.50287 12.3181 2.78642 13.8133C4.06998 15.3085 5.87065 16.2639 7.82826 16.4882C9.75393 16.709 11.6916 16.2064 13.2664 15.0801C13.2859 15.1033 13.3066 15.1263 13.3288 15.1492ZM15.1505 8.71735C15.1505 9.562 14.9842 10.3984 14.661 11.1787C14.3378 11.9591 13.8641 12.6681 13.2669 13.2654C12.6698 13.8627 11.9608 14.3364 11.1806 14.6597C10.4003 14.9829 9.56407 15.1493 8.71953 15.1493C7.87499 15.1493 7.03875 14.9829 6.2585 14.6597C5.47824 14.3364 4.76931 13.8627 4.17213 13.2654C3.57495 12.6681 3.10125 11.9591 2.77806 11.1787C2.45487 10.3984 2.28853 9.562 2.28853 8.71735C2.28853 7.01149 2.96607 5.3755 4.17213 4.16928C5.37819 2.96307 7.01391 2.28542 8.71953 2.28542C10.4252 2.28542 12.0609 2.96307 13.2669 4.16928C14.473 5.3755 15.1505 7.01149 15.1505 8.71735Z" fill="black" stroke="black" stroke-width="0.2"/>
</svg>
