<svg width="15" height="18" viewBox="0 0 15 18" fill="none" xmlns="http://www.w3.org/2000/svg">
<path d="M7.70955 16.5838C7.70955 16.5838 14.1744 11.8951 14.119 6.89388C14.0838 3.70692 11.1378 1.15547 7.53931 1.19528C3.94079 1.23509 1.05199 3.85109 1.08725 7.03805C1.14258 12.0393 7.70955 16.5838 7.70955 16.5838Z" stroke="white" stroke-width="1.5" stroke-linejoin="round"/>
<path d="M7.58948 9.19309C7.93346 9.18929 8.27334 9.11927 8.58971 8.98703C8.90608 8.85478 9.19275 8.66291 9.43335 8.42237C9.67395 8.18182 9.86377 7.89732 9.99197 7.58509C10.1202 7.27286 10.1842 6.93903 10.1805 6.60265C10.1768 6.26628 10.1054 5.93395 9.97028 5.62463C9.8352 5.31532 9.63914 5.03508 9.39328 4.79992C9.14741 4.56475 8.85657 4.37927 8.53735 4.25406C8.21813 4.12885 7.87678 4.06637 7.5328 4.07017C6.8381 4.07786 6.17484 4.3551 5.68893 4.8409C5.20302 5.3267 4.93426 5.98127 4.94178 6.66061C4.94929 7.33995 5.23247 7.98842 5.72901 8.46335C6.22555 8.93828 6.89478 9.20078 7.58948 9.19309Z" stroke="white" stroke-width="1.5" stroke-linejoin="round"/>
</svg>
