<svg width="22" height="22" viewBox="0 0 7 12" fill="none" xmlns="http://www.w3.org/2000/svg">
<path d="M0.310007 0.710022C0.217304 0.802536 0.143756 0.912424 0.0935745 1.0334C0.0433931 1.15437 0.0175629 1.28405 0.0175629 1.41502C0.0175629 1.54599 0.0433931 1.67567 0.0935745 1.79665C0.143756 1.91762 0.217304 2.02751 0.310007 2.12002L4.19001 6.00002L0.310007 9.88002C0.123029 10.067 0.0179863 10.3206 0.0179863 10.585C0.0179863 10.8494 0.123029 11.103 0.310007 11.29C0.496985 11.477 0.750581 11.582 1.01501 11.582C1.27943 11.582 1.53303 11.477 1.72001 11.29L6.31001 6.70002C6.40271 6.60751 6.47626 6.49762 6.52644 6.37665C6.57662 6.25567 6.60245 6.12599 6.60245 5.99502C6.60245 5.86405 6.57662 5.73437 6.52644 5.6134C6.47626 5.49242 6.40271 5.38254 6.31001 5.29002L1.72001 0.700022C1.34001 0.320022 0.700007 0.320022 0.310007 0.710022Z" fill="#555555"/>
</svg>
