<svg width="22" height="22" viewBox="0 0 7 12" fill="none" xmlns="http://www.w3.org/2000/svg">
<path d="M6.29244 10.872C6.38514 10.7795 6.45869 10.6696 6.50887 10.5486C6.55905 10.4277 6.58488 10.298 6.58488 10.167C6.58488 10.036 6.55905 9.90636 6.50887 9.78539C6.45869 9.66441 6.38514 9.55452 6.29244 9.46201L2.41244 5.58201L6.29244 1.70201C6.47942 1.51503 6.58446 1.26144 6.58446 0.99701C6.58446 0.732584 6.47942 0.478986 6.29244 0.292008C6.10546 0.105031 5.85187 -1.04904e-05 5.58744 -1.04904e-05C5.32301 -1.04904e-05 5.06942 0.105031 4.88244 0.292008L0.29244 4.88201C0.199737 4.97452 0.126189 5.08441 0.0760078 5.20539C0.0258264 5.32636 -2.86102e-06 5.45604 -2.86102e-06 5.58701C-2.86102e-06 5.71798 0.0258264 5.84766 0.0760078 5.96863C0.126189 6.08961 0.199737 6.1995 0.29244 6.29201L4.88244 10.882C5.26244 11.262 5.90244 11.262 6.29244 10.872Z" fill="#555555"/>
</svg>
