<svg width="95" height="18" viewBox="0 0 95 18" fill="none" xmlns="http://www.w3.org/2000/svg">
<path d="M10 0.846763L11.8858 6.9492L11.9402 7.12539H12.1246H18.2609L13.2859 10.9259L13.1474 11.0318L13.1988 11.1984L15.0925 17.3265L10.1518 13.5521L10 13.4362L9.84823 13.5521L4.90748 17.3265L6.80116 11.1984L6.85265 11.0318L6.71407 10.9259L1.73907 7.12539H7.87539H8.0598L8.11424 6.9492L10 0.846763Z" fill="#FFA41C" stroke="#E78726" stroke-width="0.5"/>
<path d="M29 0.846763L30.8858 6.9492L30.9402 7.12539H31.1246H37.2609L32.2859 10.9259L32.1474 11.0318L32.1988 11.1984L34.0925 17.3265L29.1518 13.5521L29 13.4362L28.8482 13.5521L23.9075 17.3265L25.8012 11.1984L25.8526 11.0318L25.7141 10.9259L20.7391 7.12539H26.8754H27.0598L27.1142 6.9492L29 0.846763Z" fill="#FFA41C" stroke="#E78726" stroke-width="0.5"/>
<path d="M48 0.846763L49.8858 6.9492L49.9402 7.12539H50.1246H56.2609L51.2859 10.9259L51.1474 11.0318L51.1988 11.1984L53.0925 17.3265L48.1518 13.5521L48 13.4362L47.8482 13.5521L42.9075 17.3265L44.8012 11.1984L44.8526 11.0318L44.7141 10.9259L39.7391 7.12539H45.8754H46.0598L46.1142 6.9492L48 0.846763Z" fill="#FFA41C" stroke="#E78726" stroke-width="0.5"/>
<path d="M67 0.846763L68.8858 6.9492L68.9402 7.12539H69.1246H75.2609L70.2859 10.9259L70.1474 11.0318L70.1988 11.1984L72.0925 17.3265L67.1518 13.5521L67 13.4362L66.8482 13.5521L61.9075 17.3265L63.8012 11.1984L63.8526 11.0318L63.7141 10.9259L58.7391 7.12539H64.8754H65.0598L65.1142 6.9492L67 0.846763Z" fill="#FFA41C" stroke="#E78726" stroke-width="0.5"/>
<path d="M86 0.846763L87.8858 6.9492L87.9402 7.12539H88.1246H94.2609L89.2859 10.9259L89.1474 11.0318L89.1988 11.1984L91.0925 17.3265L86.1518 13.5521L86 13.4362L85.8482 13.5521L80.9075 17.3265L82.8012 11.1984L82.8526 11.0318L82.7141 10.9259L77.7391 7.12539H83.8754H84.0598L84.1142 6.9492L86 0.846763Z" fill="#FFA41C" stroke="#E78726" stroke-width="0.5"/>
</svg>
