<svg width="20" height="12" viewBox="0 0 22 17" fill="none" xmlns="http://www.w3.org/2000/svg">
<path d="M20.7703 2.64004L15.0504 2.64006V1.19134C15.0504 0.518512 14.2123 -0.012207 13.1833 -0.012207H8.81648C7.78745 -0.012207 6.94977 0.518512 6.94977 1.19134V2.64006H1.22977C0.781241 2.64006 0.417267 2.87806 0.417267 3.17131C0.417267 3.46456 0.781241 3.70256 1.22977 3.70256H2.34734L4.23233 15.9864C4.31115 16.5612 5.06027 17.012 5.93696 17.012H16.0627C16.9394 17.012 17.6877 16.5612 17.7661 15.9914L19.6527 3.70229H20.7703C21.2192 3.70229 21.5828 3.46429 21.5828 3.17104C21.5828 2.87779 21.2192 2.64004 20.7703 2.64004H20.7703ZM8.57474 1.19136C8.57474 1.1045 8.68318 1.03356 8.81646 1.03356H13.1832C13.3165 1.03356 13.4254 1.1045 13.4254 1.19136V2.64008H8.57474V1.19136ZM16.1485 15.891C16.1444 15.9205 16.0912 15.9497 16.0627 15.9497H5.93696C5.90852 15.9497 5.8549 15.9208 5.85 15.886L3.98043 3.70284H18.0192L16.1485 15.891Z" fill="black"/>
</svg>
